# xmcd
# 
# Track frame offsets:
#     183
#     12870
#     32770
#     55748
#     73845
#     99103
#     118798
#     135465
#     149680
#     162673
#     179608
#     198665
#     212773
#     229088
#     251980
#     269793
#     289338
#     299485
#     314585
#     344298
# 
# Disc length: 4781
# 
# Revision: 4
# Processed by: cddbd v1.5.2PL0 Copyright (c) Steve Scherf et al.
# Submitted via: BonkEnc v1.0
# 
DISCID=5012ab14
DTITLE=Lou Reed and The Velvet Underground - The Best Of
DYEAR=1995
DGENRE=Blues
TTITLE0=Sunday Morning
TTITLE1=I´m Waiting For The Man
TTITLE2=Venus In Furs
TTITLE3=Candy Says
TTITLE4=Pale Blue Eyes
TTITLE5=Beginning To See The Light
TTITLE6=Satellite Of Love
TTITLE7=Nowhere At All
TTITLE8=Vicious
TTITLE9=Perfect Day
TTITLE10=Walk On The Wild Side
TTITLE11=How Do You Think It Feels
TTITLE12=Sweet Jane
TTITLE13=White Light/White Heat
TTITLE14=Sally Can´t Dance
TTITLE15=Wild Child
TTITLE16=I Love You
TTITLE17=Berlin
TTITLE18=Coney Island Baby
TTITLE19=I Love You, Suzanne
EXTD=
EXTT0=
EXTT1=
EXTT2=
EXTT3=
EXTT4=
EXTT5=
EXTT6=
EXTT7=
EXTT8=
EXTT9=
EXTT10=
EXTT11=
EXTT12=
EXTT13=
EXTT14=
EXTT15=
EXTT16=
EXTT17=
EXTT18=
EXTT19=
PLAYORDER=
